# xmcd
#
# Track frame offsets:
#	150
#	21437
#	40922
#	52242
#	71332
#	91170
#	111097
#	130757
#	151627
#	162605
#
# Disc length: 2401 seconds
#
# Revision: 0
# Processed by: cddbd v1.5.2PL0 Copyright (c) Steve Scherf et al.
# Submitted via: EasyCDDAExtractor 2010.6.0.0
#
DISCID=7f095f0a
DTITLE=Pave Maijanen - Kuutamokeikka
DYEAR=1990
DGENRE=
TTITLE0=Kaikki nämä vuodet
TTITLE1=Näinkö rakkaus palkitaan
TTITLE2=Tuutulaulu
TTITLE3=Aurinko nousee
TTITLE4=Nuo miehet
TTITLE5=Ikävä
TTITLE6=Loputon tie
TTITLE7=Kuutamokeikka
TTITLE8=Missä vika
TTITLE9=Viimeinen valssi
EXTD=
EXTT0=
EXTT1=
EXTT2=
EXTT3=
EXTT4=
EXTT5=
EXTT6=
EXTT7=
EXTT8=
EXTT9=
PLAYORDER=
